<?xml version="1.0" standalone="no"?><!DOCTYPE svg PUBLIC "-//W3C//DTD SVG 1.1//EN" "http://www.w3.org/Graphics/SVG/1.1/DTD/svg11.dtd"><svg t="1507169107375" class="icon" style="" viewBox="0 0 1024 1024" version="1.1" xmlns="http://www.w3.org/2000/svg" p-id="15898" xmlns:xlink="http://www.w3.org/1999/xlink" width="200" height="200"><defs><style type="text/css"></style></defs><path d="M512 64C264.32 64 64 264.32 64 512s200.32 448 448 448 448-200.32 448-448S759.68 64 512 64zM512 896c-211.84 0-384-172.16-384-384 0-94.72 33.92-181.12 90.88-247.68l540.8 540.8C693.12 862.08 606.72 896 512 896zM805.12 759.68 264.32 218.88C330.88 161.92 417.28 128 512 128c211.84 0 384 172.16 384 384C896 606.72 862.08 693.12 805.12 759.68z" p-id="15899"></path></svg>