<?xml version="1.0" standalone="no"?><!DOCTYPE svg PUBLIC "-//W3C//DTD SVG 1.1//EN" "http://www.w3.org/Graphics/SVG/1.1/DTD/svg11.dtd"><svg t="1507167289862" class="icon" style="" viewBox="0 0 1024 1024" version="1.1" xmlns="http://www.w3.org/2000/svg" p-id="4274" xmlns:xlink="http://www.w3.org/1999/xlink" width="200" height="200"><defs><style type="text/css"></style></defs><path d="M664.46304 981.333333 663.880811 981.333333C656.901163 979.590473 648.75706 979.010466 641.196604 977.847616 633.634726 977.267605 625.490624 976.106172 617.930167 974.363315 609.786061 972.620454 602.224183 971.459021 594.081502 970.297587 587.101854 969.71616 579.539977 968.554726 571.397295 966.81187L570.815066 966.81187C564.998455 965.069009 558.599616 963.907575 552.783006 963.326148 546.385591 962.164715 540.568981 961.584708 535.33318 959.841852L497.525222 950.547546 512.648973 929.637487C520.791659 916.277457 530.098799 904.078861 538.823714 891.881681 548.711667 877.940224 558.599616 864.580194 566.161493 851.221581L566.743723 850.640154 567.324531 850.058726C570.815066 846.57443 574.305596 842.508702 577.794709 835.537263L584.774357 822.17865 571.978103 830.891529C560.927113 838.441557 546.385591 849.47872 531.844066 859.93446 499.270485 884.330236 459.136452 897.690266 417.837959 897.690266 388.174104 897.690266 359.091058 890.718827 332.916317 877.940224L278.239338 852.383014C274.750225 850.640154 266.60612 845.412996 262.534778 833.214396 259.626473 824.501517 261.952549 818.692932 268.933616 808.81862L269.514425 808.237193 270.096654 807.657186C285.218985 792.554295 295.689166 778.032832 302.668813 768.158519L309.067651 758.284207 298.016662 761.768508C292.200052 763.511369 287.546481 765.254229 283.475139 766.997086 278.821567 768.738526 274.167996 770.481387 268.933616 772.224247 253.227635 778.032832 236.360036 780.937126 220.073247 780.937126 186.918858 780.937126 153.76447 769.319953 127.589729 747.828471 88.618731 715.88125 65.933103 697.294059 62.44399 693.808337L42.666667 674.059716 73.494979 668.251127C76.403284 667.669705 391.663217 588.092361 573.723371 370.270397L581.285244 362.137526 581.866052 361.557519C593.499273 334.837457 608.040794 319.154559 630.726421 309.280247L631.30723 309.280247C651.665365 297.081649 672.023497 291.273064 692.963857 291.273064 709.250645 291.273064 724.955209 294.758782 739.49673 302.310227L740.078959 302.310227C784.284335 320.897418 824.419793 338.903183 866.299093 359.814659 923.302148 384.791861 950.639927 443.457728 933.190101 503.286443L933.190101 505.029303 932.607872 506.190737C932.607872 506.77216 932.027063 507.352171 932.027063 507.933594 930.862605 509.676454 930.281796 511.419315 929.699567 513.160755L929.699567 514.323605 925.628224 520.712201 922.719919 528.263646C904.687863 582.283776 836.053009 773.385681 706.923149 963.326148L704.597073 963.907575 703.434035 964.489003C701.688772 965.650436 699.943505 967.393293 698.198238 969.134737 692.381628 974.363315 685.40198 981.333333 670.860459 981.333333L664.46304 981.333333 664.46304 981.333333ZM558.599616 927.894626C561.507921 927.894626 564.998455 928.474637 568.48899 929.637487 571.978103 930.798921 575.468634 931.378927 579.539977 931.378927L580.703014 931.378927C587.682662 933.121788 595.24454 933.703215 601.643375 934.864649 609.205252 936.026082 616.1849 936.607505 623.164548 938.350366 630.726421 940.091806 638.869107 941.25466 647.013214 941.834667 655.155895 942.9961 663.298581 943.577527 670.27965 945.320384L673.187955 945.900395 674.931802 943.577527C790.100945 776.289971 854.665877 609.583846 882.585886 538.719381L887.238037 527.102212 591.173197 394.084748 589.42793 396.409033C434.124749 572.989474 206.694761 659.538249 116.537319 688.58118L108.394634 690.904047 115.374281 695.551198C121.190891 699.616926 126.426691 704.264077 133.406338 709.491238 138.640718 714.138389 144.457327 718.78554 151.436974 724.012702 171.214298 741.43846 195.643772 750.732762 221.236285 750.732762 234.614769 750.732762 247.993255 748.408478 260.789511 743.181316 317.792565 722.269841 338.150697 709.491238 345.712573 702.521216L380.029999 671.155422 371.305085 717.624107C368.396781 743.181316 331.17105 787.907145 299.760508 823.920094L296.271395 827.987238 344.549535 851.801587C366.651514 862.257327 390.50018 867.484484 414.929654 867.484484 449.248499 867.484484 482.983697 857.030165 511.485935 837.280124 537.078447 817.531499 559.181845 801.267174 576.631671 788.488572 592.336235 776.871398 604.55168 768.158519 612.694366 761.188501L613.276595 760.607074C616.765709 757.121357 623.746778 750.151339 630.144192 746.667038L630.726421 746.667038 675.514031 704.844083 663.880811 753.637056C656.901163 777.451405 633.052497 812.302921 588.264892 871.551629L588.264892 872.713062C584.193549 880.844518 577.794709 890.13882 571.397295 899.431706 566.161493 906.983151 560.927113 914.534596 556.27354 922.666048L552.783006 929.05606 558.599616 929.05606 558.599616 927.894626 558.599616 927.894626ZM898.871253 488.184973 900.035712 482.956395C907.596169 441.134861 887.820262 402.797626 850.594534 388.276162 811.041306 370.270397 766.834509 351.683206 724.372979 334.257449 711.576721 329.028871 698.780467 326.124578 685.40198 326.124578 670.27965 326.124578 655.738125 329.610297 642.359642 337.161742L641.196604 337.741749 640.032145 337.741749C630.144192 338.903183 622.00151 349.940347 616.765709 357.491792L613.857404 361.557519 898.871253 488.184973 898.871253 488.184973ZM857.574182 337.161742 756.946556 290.11163 745.31334 277.913033 754.62048 258.745834 877.932314 26.982412C886.657225 10.138081 896.545178 3.168062 913.412779 3.168062 916.903309 3.168062 920.393843 3.168062 923.882957 3.748069 944.823317 7.813796 959.945651 15.946667 968.670562 27.563838L969.252791 28.143846C979.140745 38.019576 982.04905 54.282481 975.651631 67.062505L877.350084 328.448863 871.533474 342.970327 857.574182 337.161742 857.574182 337.161742ZM854.665877 302.890235 943.07805 59.51106 943.07805 54.282481 942.495821 53.702474C938.424482 44.989595 929.699567 40.342443 916.903309 40.342443L908.178398 40.342443 902.944017 45.569603 780.795221 270.943014 854.665877 302.890235 854.665877 302.890235Z" p-id="4275"></path></svg>