<?xml version="1.0" standalone="no"?><!DOCTYPE svg PUBLIC "-//W3C//DTD SVG 1.1//EN" "http://www.w3.org/Graphics/SVG/1.1/DTD/svg11.dtd"><svg t="1507168582789" class="icon" style="" viewBox="0 0 1024 1024" version="1.1" xmlns="http://www.w3.org/2000/svg" p-id="5866" xmlns:xlink="http://www.w3.org/1999/xlink" width="200" height="200"><defs><style type="text/css"></style></defs><path d="M876.293937 359.780133c-9.603729 0-17.364483 7.760754-17.364483 17.319457L858.929454 758.733451c0 38.320771-31.043017 69.40779-69.362764 69.40779L234.435357 828.14124c-38.320771 0-69.365834-31.087019-69.365834-69.40779L165.069523 203.645097c0-38.320771 31.045063-69.362764 69.365834-69.362764l381.63386 0c9.601682 0 17.362436-7.760754 17.362436-17.364483 0-9.558703-7.760754-17.362436-17.362436-17.362436L234.435357 99.555413c-57.46069 0-104.069217 46.608527-104.069217 104.089683L130.36614 758.733451c0 57.526181 46.608527 104.089683 104.069217 104.089683L789.56669 862.823134c57.481156 0 104.06717-46.563502 104.06717-104.089683L893.63386 377.09959C893.63386 367.540887 885.873106 359.780133 876.293937 359.780133L876.293937 359.780133zM321.18307 672.006204l148.046824-25.387203L868.226191 247.622704c15.696494-15.696494 25.40767-37.357839 25.40767-61.340043 0-47.879474-38.823214-86.727247-86.747713-86.727247-23.939225 0-45.621037 9.733689-61.319577 25.430182L346.592786 523.938913 321.18307 672.006204 321.18307 672.006204zM770.099313 149.495826c9.426697-9.426697 22.449291-15.213493 36.786835-15.213493 28.741601 0 52.043307 23.282263 52.043307 52.001351 0 14.380522-5.829775 27.403117-15.236006 36.829813l-22.426779 22.404266-73.595158-73.572646L770.099313 149.495826 770.099313 149.495826zM723.139791 196.454324l73.595158 73.617671L477.295594 589.487815l0-73.572646-73.572646 0L723.139791 196.454324 723.139791 196.454324zM377.942795 550.597063l64.670905 0 0 64.670905-78.067007 13.372565L377.942795 550.597063 377.942795 550.597063zM377.942795 550.597063" p-id="5867"></path></svg>