<?xml version="1.0" standalone="no"?><!DOCTYPE svg PUBLIC "-//W3C//DTD SVG 1.1//EN" "http://www.w3.org/Graphics/SVG/1.1/DTD/svg11.dtd"><svg t="1511500424257" class="icon" style="" viewBox="0 0 1024 1024" version="1.1" xmlns="http://www.w3.org/2000/svg" p-id="13878" xmlns:xlink="http://www.w3.org/1999/xlink" width="200" height="200"><defs><style type="text/css"></style></defs><path d="M109.075722 726.809023V109.568937H692.025571v51.436572h34.290237V75.277483H74.784269v685.82421H160.512295v-34.29267h-51.436573z" fill="#000000" p-id="13879"></path><path d="M229.095202 229.588417h582.948633v240.037743h34.291453V195.296963H194.803749V881.119956h291.474316v-34.291453H229.095202V229.588417z" fill="#000000" p-id="13880"></path><path d="M246.240321 263.878654h548.658395v17.146335H246.240321V263.878654zM126.222058 143.86039h548.658394v17.145119H126.222058v-17.145119zM949.208433 658.227331h-57.319868l40.531129-40.529912-96.989849-96.989849-40.531129 40.531129V503.917614H657.734117v57.319868l-40.531128-40.531128-96.98985 96.989849 40.531129 40.529912H503.4244v137.164599h57.319868l-40.531129 40.531129 96.98985 96.989849 40.531128-40.532346v57.319869h137.164599v-57.319869l40.531129 40.532346 96.989849-96.989849-40.531129-40.531129h57.319868v-137.163383z m-34.290237 102.874362h-38.114319a153.455867 153.455867 0 0 1-19.839247 47.861834l26.960747 26.961964-48.494316 48.494317-26.961964-26.960748a153.460732 153.460732 0 0 1-47.860618 19.839247v38.114319H692.025571v-38.114319a153.443704 153.443704 0 0 1-47.861835-19.839247l-26.960747 26.960748-48.495533-48.494317 26.961964-26.961964a153.4583 153.4583 0 0 1-19.840464-47.861834h-38.114319V692.518785h38.114319a153.446137 153.446137 0 0 1 19.840464-47.861835l-26.961964-26.960747 48.495533-48.495533 26.960747 26.961964a153.446137 153.446137 0 0 1 47.861835-19.840464v-38.115535h68.584124v38.115535a153.463165 153.463165 0 0 1 47.860618 19.840464l26.961964-26.961964 48.494317 48.495533-26.960748 26.960747a153.443704 153.443704 0 0 1 19.839247 47.861835h38.114319v68.582908h-0.001216z" fill="#000000" p-id="13881"></path><path d="M726.315808 641.080996c-47.344903 0-85.728026 38.381907-85.728026 85.728027s38.383124 85.72681 85.728026 85.726809 85.72681-38.380691 85.72681-85.726809-38.379475-85.728026-85.72681-85.728027z m0 137.165815c-28.408158 0-51.435356-23.030847-51.435356-51.436572 0-28.406942 23.028415-51.436572 51.435356-51.436573 28.405725 0 51.436572 23.029631 51.436573 51.436573s-23.028415 51.436572-51.436573 51.436572z" fill="#000000" p-id="13882"></path></svg>