<?xml version="1.0" standalone="no"?><!DOCTYPE svg PUBLIC "-//W3C//DTD SVG 1.1//EN" "http://www.w3.org/Graphics/SVG/1.1/DTD/svg11.dtd"><svg t="1508019068171" class="icon" style="" viewBox="0 0 1181 1024" version="1.1" xmlns="http://www.w3.org/2000/svg" p-id="4360" xmlns:xlink="http://www.w3.org/1999/xlink" width="230.6640625" height="200"><defs><style type="text/css"></style></defs><path d="M1126.492335 1024h-1071.091073c-30.470694 0-55.401262-24.930568-55.401262-54.477908v-915.044184c0-30.470694 24.930568-54.477908 55.401262-54.477908h1071.091073c30.470694 0 55.401262 24.930568 55.401263 54.477908v915.044184c0 30.470694-24.930568 54.477908-55.401263 54.477908z m-1015.68981-969.522092c-30.470694 0-55.401262 24.930568-55.401263 54.477908 0 30.470694 24.930568 54.477908 55.401263 54.477908s55.401262-24.930568 55.401262-54.477908-24.930568-54.477908-55.401262-54.477908z m166.203787 0c-30.470694 0-55.401262 24.930568-55.401262 54.477908 0 30.470694 24.930568 54.477908 55.401262 54.477908s55.401262-24.930568 55.401262-54.477908-24.930568-54.477908-55.401262-54.477908z m166.203787 0c-30.470694 0-55.401262 24.930568-55.401262 54.477908 0 30.470694 24.930568 54.477908 55.401262 54.477908s55.401262-24.930568 55.401263-54.477908-24.930568-54.477908-55.401263-54.477908z m683.282236 166.203787h-1071.091073v748.840397h1071.091073v-748.840397z m-715.599639 143.119928c5.540126-5.540126 13.850316-5.540126 19.390442 0 5.540126 5.540126 5.540126 13.850316 0 19.390442l-193.904418 192.981064 193.904418 192.981064c5.540126 5.540126 5.540126 13.850316 0 19.390442-5.540126 5.540126-13.850316 5.540126-19.390442 0l-203.137962-203.137962c-2.770063-1.846709-4.616772-5.540126-4.616772-9.233544s0.923354-7.386835 3.693418-10.156898l204.061316-202.214608z m245.612263 58.171326c3.693417-6.463481 12.003607-9.233544 18.467088-5.540127s9.233544 11.080252 6.463481 18.467088l-156.970244 296.396754c-3.693417 6.463481-12.003607 9.233544-18.467087 5.540126s-9.233544-11.080252-6.463481-18.467088l156.970243-296.396753z m95.105501-58.171326c5.540126-5.540126 13.850316-5.540126 19.390442 0l203.137962 203.137962c2.770063 2.770063 3.693417 6.463481 3.693417 10.156898s-0.923354 7.386835-3.693417 10.156898l-203.137962 203.137963c-5.540126 5.540126-13.850316 5.540126-19.390442 0-5.540126-5.540126-5.540126-13.850316 0-19.390442l193.904418-193.904419-193.904418-193.904418c-5.540126-5.540126-5.540126-13.850316 0-19.390442z" fill="#000000" p-id="4361"></path></svg>