<?xml version="1.0" standalone="no"?><!DOCTYPE svg PUBLIC "-//W3C//DTD SVG 1.1//EN" "http://www.w3.org/Graphics/SVG/1.1/DTD/svg11.dtd"><svg t="1507436326011" class="icon" style="" viewBox="0 0 1024 1024" version="1.1" xmlns="http://www.w3.org/2000/svg" p-id="7499" xmlns:xlink="http://www.w3.org/1999/xlink" width="200" height="200"><defs><style type="text/css"></style></defs><path d="M511.2 370c38 0 73.6 14.8 100.5 41.6 26.8 26.8 41.6 62.5 41.6 100.5s-14.8 73.6-41.6 100.5c-26.8 26.8-62.5 41.6-100.5 41.6s-73.6-14.8-100.5-41.6c-26.8-26.8-41.6-62.5-41.6-100.5s14.8-73.6 41.6-100.5c26.8-26.8 62.5-41.6 100.5-41.6z m0-50C405.1 320 319 406 319 512.1s86 192.1 192.1 192.1 192.1-86 192.1-192.1c0.1-106.1-85.9-192.1-192-192.1z" fill="" p-id="7500"></path><path d="M513.2 66.2l386.6 224.3-1 447-387.5 222.7-386.6-224.3 0.9-447L513.2 66.2z m0-50c-8.6 0-17.2 2.2-24.9 6.6L100.7 245.5c-15.5 8.9-25.1 25.4-25.1 43.2l-0.9 447c0 17.9 9.5 34.4 24.9 43.4l386.6 224.3c7.8 4.5 16.4 6.8 25.1 6.8 8.6 0 17.2-2.2 24.9-6.6l387.6-222.7c15.5-8.9 25.1-25.4 25.1-43.2l1-447c0-17.9-9.5-34.4-24.9-43.4L538.3 23c-7.7-4.5-16.4-6.8-25.1-6.8z" fill="" p-id="7501"></path></svg>