<?xml version="1.0" standalone="no"?><!DOCTYPE svg PUBLIC "-//W3C//DTD SVG 1.1//EN" "http://www.w3.org/Graphics/SVG/1.1/DTD/svg11.dtd"><svg t="1507437885417" class="icon" style="" viewBox="0 0 1024 1024" version="1.1" xmlns="http://www.w3.org/2000/svg" p-id="6332" xmlns:xlink="http://www.w3.org/1999/xlink" width="200" height="200"><defs><style type="text/css"></style></defs><path d="M922.857143 0q40 0 70 26.571429T1022.857143 93.142857q0 36-25.714286 86.285714-189.714286 359.428571-265.714286 429.714286-55.428571 52-124.571428 52-72 0-123.714286-52.857143T431.428571 482.857143q0-73.142857 52.571429-121.142857l364.571429-330.857143q33.714286-30.857143 74.285714-30.857143zM403.428571 590.857143q22.285714 43.428571 60.857143 74.285714t86 43.428572l0.571429 40.571428q2.285714 121.714286-74 198.285714T277.714286 1024q-70.285714 0-124.571429-26.571429T66 924.571429 16.571429 820 0 694.285714q4 2.857143 23.428571 17.142857t35.428572 25.428572 33.714286 20.857143 26.285714 9.714285q23.428571 0 31.428571-21.142857 14.285714-37.714286 32.857143-64.285714t39.714286-43.428571 50.285714-27.142858 58.857143-14.571428 71.428571-6z" p-id="6333" fill="#ffffff"></path></svg>