<?xml version="1.0" standalone="no"?><!DOCTYPE svg PUBLIC "-//W3C//DTD SVG 1.1//EN" "http://www.w3.org/Graphics/SVG/1.1/DTD/svg11.dtd"><svg t="1511516595477" class="icon" style="" viewBox="0 0 1024 1024" version="1.1" xmlns="http://www.w3.org/2000/svg" p-id="3710" xmlns:xlink="http://www.w3.org/1999/xlink" width="200" height="200"><defs><style type="text/css"></style></defs><path d="M608 64C390.4 64 211.2 230.4 192 448L64 448l160 192L384 448 256 448c19.2-179.2 166.4-320 352-320 192 0 352 160 352 352S800 832 608 832c-12.8 0-19.2 0-32 0l0 64c12.8 0 19.2 0 32 0 230.4 0 416-185.6 416-416S838.4 64 608 64z" p-id="3711" fill="#000000"></path><path d="M0 704 448 704 448 640 224 640 0 640Z" p-id="3712" fill="#000000"></path></svg>