<?xml version="1.0" standalone="no"?><!DOCTYPE svg PUBLIC "-//W3C//DTD SVG 1.1//EN" "http://www.w3.org/Graphics/SVG/1.1/DTD/svg11.dtd"><svg t="1520301761193" class="icon" style="" viewBox="0 0 1024 1024" version="1.1" xmlns="http://www.w3.org/2000/svg" p-id="2465" xmlns:xlink="http://www.w3.org/1999/xlink" width="200" height="200"><defs><style type="text/css"></style></defs><path d="M1023.934464 512.032768q0 14.856192-10.856448 25.71264l-146.276352 146.276352q-10.856448 10.856448-25.71264 10.856448t-25.71264-10.856448-10.856448-25.71264l0-73.138176-585.105408 0 0 73.138176q0 14.856192-10.856448 25.71264t-25.71264 10.856448-25.71264-10.856448l-146.276352-146.276352q-10.856448-10.856448-10.856448-25.71264t10.856448-25.71264l146.276352-146.276352q10.856448-10.856448 25.71264-10.856448t25.71264 10.856448 10.856448 25.71264l0 73.138176 585.105408 0 0-73.138176q0-14.856192 10.856448-25.71264t25.71264-10.856448 25.71264 10.856448l146.276352 146.276352q10.856448 10.856448 10.856448 25.71264z" p-id="2466" fill="#000000"></path></svg>