<?xml version="1.0" standalone="no"?><!DOCTYPE svg PUBLIC "-//W3C//DTD SVG 1.1//EN" "http://www.w3.org/Graphics/SVG/1.1/DTD/svg11.dtd"><svg t="1508019307771" class="icon" style="" viewBox="0 0 1024 1024" version="1.1" xmlns="http://www.w3.org/2000/svg" p-id="2365" xmlns:xlink="http://www.w3.org/1999/xlink" width="200" height="200"><defs><style type="text/css"></style></defs><path d="M986.494527 61.503228 644.71413 403.251692c-6.226962 6.226962-16.349768 6.226962-22.57673 0-6.226962-6.258895-6.226962-16.349768 0-22.57673L963.917797 38.926498c6.226962-6.258895 16.349768-6.258895 22.57673 0C992.753423 45.15346 992.753423 55.276265 986.494527 61.503228z" p-id="2366" fill="#000000"></path><path d="M794.895687 476.602114c-2.905916 2.905916-6.897558 4.662238-11.304332 4.662238l-201.593913-0.063866c-10.090872 0.063866-19.638881-3.927776-26.823838-11.048866-7.184956-7.21689-11.112733-16.701032-11.112733-26.887704l0.031933-201.530046c0-8.813547 7.153023-15.96657 15.96657-15.96657 8.813547 0 15.96657 7.153023 15.96657 15.96657l-0.031933 201.56198c0 2.13952 1.053794 3.576512 1.756323 4.247108 0.670596 0.638663 2.043721 1.72439 4.215174 1.756323l201.593913 0.031933c8.781613 0 15.96657 7.184956 15.96657 15.96657C799.589859 469.768422 797.76967 473.760065 794.895687 476.602114z" p-id="2367" fill="#000000"></path><path d="M847.234104 1024 176.957495 1024c-96.885147 0-175.696136-78.810989-175.696136-175.728069L1.261359 175.728069c0-96.91708 78.810989-175.728069 175.696136-175.728069l489.694702 0c8.558082 0 15.45564 6.929491 15.45564 15.487573s-6.929491 15.487573-15.45564 15.487573L176.957495 30.975146c-79.83285 0-144.752924 64.920074-144.752924 144.752924l0 672.575794c0 79.83285 64.920074 144.752924 144.752924 144.752924l670.276608 0c79.83285 0 144.752924-64.920074 144.752924-144.752924L991.987027 389.648174c0-8.558082 6.929491-15.487573 15.45564-15.487573S1022.93024 381.090093 1022.93024 389.648174l0 458.623757C1022.93024 945.189011 944.11925 1024 847.234104 1024z" p-id="2368" fill="#000000"></path></svg>