<?xml version="1.0" encoding="UTF-8" standalone="no"?>
<svg
   xmlns:dc="http://purl.org/dc/elements/1.1/"
   xmlns:cc="http://creativecommons.org/ns#"
   xmlns:rdf="http://www.w3.org/1999/02/22-rdf-syntax-ns#"
   xmlns:svg="http://www.w3.org/2000/svg"
   xmlns="http://www.w3.org/2000/svg"
   xmlns:sodipodi="http://sodipodi.sourceforge.net/DTD/sodipodi-0.dtd"
   xmlns:inkscape="http://www.inkscape.org/namespaces/inkscape"
   t="1518574131233"
   class="icon"
   viewBox="0 0 525.96992 895.00102"
   version="1.1"
   p-id="5541"
   width="102.7285"
   height="174.80489"
   id="svg8"
   sodipodi:docname="return.svg"
   inkscape:version="0.92.1 r15371">
  <metadata
     id="metadata12">
    <rdf:RDF>
      <cc:Work
         rdf:about="">
        <dc:format>image/svg+xml</dc:format>
        <dc:type
           rdf:resource="http://purl.org/dc/dcmitype/StillImage" />
        <dc:title></dc:title>
      </cc:Work>
    </rdf:RDF>
  </metadata>
  <sodipodi:namedview
     pagecolor="#ffffff"
     bordercolor="#666666"
     borderopacity="1"
     objecttolerance="10"
     gridtolerance="10"
     guidetolerance="10"
     inkscape:pageopacity="0"
     inkscape:pageshadow="2"
     inkscape:window-width="1045"
     inkscape:window-height="866"
     id="namedview10"
     showgrid="false"
     fit-margin-top="0"
     fit-margin-left="0"
     fit-margin-right="0"
     fit-margin-bottom="0"
     inkscape:zoom="1.18"
     inkscape:cx="51.56404"
     inkscape:cy="87.402341"
     inkscape:window-x="0"
     inkscape:window-y="256"
     inkscape:window-maximized="0"
     inkscape:current-layer="svg8" />
  <defs
     id="defs4">
    <style
       type="text/css"
       id="style2" />
  </defs>
  <path
     d="m 470.53051,0 c 14.86046,0 28.78356,5.734608 39.20798,16.159028 21.6419,21.641902 21.6419,56.882522 0,78.524422 l -352.90761,352.8718 352.90761,352.94342 c 10.46024,10.38758 16.19587,24.23905 16.19587,39.06369 0.0358,14.89729 -5.73461,28.85621 -16.15903,39.27961 -10.46024,10.42442 -24.38334,16.15903 -39.24379,16.15903 -14.89729,0 -28.81937,-5.73461 -39.2438,-16.12322 L 2.9999999e-6,447.55422 431.28672,16.159028 C 441.71114,5.734608 455.63322,0 470.53051,0 Z"
     p-id="5542"
     data-spm-anchor-id="a313x.7781069.0.i3"
     class="selected"
     id="path6"
     inkscape:connector-curvature="0"
     style="fill:#ffffff" />
  <path
     id="path4489"
     class="selected"
     data-spm-anchor-id="a313x.7781069.0.i3"
     p-id="5542"
     d="m 470.53051,0 c 14.86046,0 28.78356,5.734608 39.20798,16.159028 21.6419,21.641902 21.6419,56.882522 0,78.524422 l -352.90761,352.8718 352.90761,352.94342 c 10.46024,10.38758 16.19587,24.23905 16.19587,39.06369 0.0358,14.89729 -5.73461,28.85621 -16.15903,39.27961 -10.46024,10.42442 -24.38334,16.15903 -39.24379,16.15903 -14.89729,0 -28.81937,-5.73461 -39.2438,-16.12322 L 2.9999999e-6,447.55422 431.28672,16.159028 C 441.71114,5.734608 455.63322,0 470.53051,0 Z"
     inkscape:connector-curvature="0"
     style="fill:#ffffff" />
</svg>
