<?xml version="1.0" standalone="no"?><!DOCTYPE svg PUBLIC "-//W3C//DTD SVG 1.1//EN" "http://www.w3.org/Graphics/SVG/1.1/DTD/svg11.dtd"><svg t="1512242933977" class="icon" style="" viewBox="0 0 1024 1024" version="1.1" xmlns="http://www.w3.org/2000/svg" p-id="3880" xmlns:xlink="http://www.w3.org/1999/xlink" width="200" height="200"><defs><style type="text/css"></style></defs><path d="M859.962 247.569h-79.706l-1.238-83.981c-0.128-56.133-45.662-101.588-101.812-101.588-0.060 0-0.119 0-0.178 0h-513.047c-0.067 0-0.146 0-0.225 0-56.139 0-101.661 45.461-101.756 101.579v511.265c0.096 56.157 45.642 101.644 101.812 101.644 0.060 0 0.119 0 0.178 0h80.991v83.925c0.128 56.133 45.662 101.588 101.813 101.588 0.079 0 0.158 0 0.237 0h512.988c0.050 0 0.11 0 0.169 0 56.17 0 101.717-45.487 101.813-101.635v-511.152c-0.096-56.157-45.642-101.644-101.813-101.644-0.079 0-0.158 0-0.237 0zM244.981 349.213v358.931h-53.212c-0.034 0-0.073 0-0.113 0-33.698 0-61.024-27.286-61.088-60.968v-455.913c0-33.637 27.394-60.975 61.2-60.975h457.594c33.75 0 61.144 27.338 61.144 60.975l1.406 56.306h-364.894c-0.067 0-0.146 0-0.225 0-56.17 0-101.717 45.487-101.813 101.635zM799.493 517.963l-224.156 223.256c-4.554 4.377-10.648 7.183-17.391 7.531-2.581 2.213-7.322 3.581-12.383 3.581-7.542 0-14.373-3.041-19.334-7.965l-118.629-118.179c-5.055-5.041-8.182-12.013-8.182-19.716s3.127-14.674 8.182-19.715l13.163-13.107c5.075-5.051 12.072-8.174 19.8-8.174s14.725 3.123 19.801 8.175l88.818 88.537 197.606-196.819c5.050-5.058 12.031-8.187 19.744-8.187s14.693 3.128 19.744 8.187l13.219 13.163c5.001 5.066 8.091 12.031 8.091 19.716s-3.088 14.649-8.093 19.718z" p-id="3881" fill="#000000"></path></svg>