<?xml version="1.0" standalone="no"?><!DOCTYPE svg PUBLIC "-//W3C//DTD SVG 1.1//EN" "http://www.w3.org/Graphics/SVG/1.1/DTD/svg11.dtd"><svg t="1507348973138" class="icon" style="" viewBox="0 0 1024 1024" version="1.1" xmlns="http://www.w3.org/2000/svg" p-id="9902" xmlns:xlink="http://www.w3.org/1999/xlink" width="200" height="200"><defs><style type="text/css"></style></defs><path d="M36.7 361.5l402.6 236.2c18.4 10.8 42 16.2 65.7 16.2 23.9 0 47.9-5.5 66.6-16.5L975.7 359c20.6-12.2 32.5-30 32.4-49 0-18.9-11.8-36.6-32.3-48.6L573.3 25.2c-37-21.7-95.2-21.6-132.3 0.3L36.8 263.9c-20.6 12.2-32.5 30-32.4 49 0 18.9 11.8 36.6 32.3 48.6z m17.9-67.4L458.8 55.6c13.2-7.8 31.1-11.7 48.8-11.7 17.5 0 35 3.8 48 11.4l402.6 236.2c9.5 5.6 15 12.3 15 18.4 0 6.2-5.5 13.1-15.2 18.8L553.8 567.2c-26.3 15.5-70.6 15.7-96.8 0.3L54.4 331.3c-9.5-5.6-15-12.3-15-18.4 0-6.2 5.5-13.1 15.2-18.8z" p-id="9903"></path><path d="M984.4 474.1c-3.2-4.2-8.3-7-14-7-9.7 0-17.5 7.8-17.5 17.5 0 5.2 2.2 9.8 5.8 13l-0.6 1c9.5 5.6 15 12.3 15 18.4 0 6.2-5.5 13.1-15.2 18.8L553.8 774.3c-26.3 15.5-70.6 15.7-96.8 0.3L54.4 538.3c-9.5-5.6-15-12.3-15-18.4 0-6.2 5.5-13.1 15.2-18.8l-0.1-0.1c5.6-2.9 9.5-8.8 9.5-15.5 0-9.7-7.8-17.5-17.5-17.5-3.8 0-7.3 1.2-10.2 3.3C16 483.4 4.4 501.2 4.4 519.9c0 18.9 11.8 36.6 32.3 48.6l402.6 236.2c18.4 10.8 42 16.2 65.7 16.2 23.9 0 47.9-5.5 66.6-16.5L975.7 566c20.6-12.2 32.5-30 32.4-49 0-16.1-8.5-31.3-23.7-42.9z" p-id="9904"></path><path d="M984.4 672c-3.2-4.2-8.3-7-14-7-9.7 0-17.5 7.8-17.5 17.5 0 5.2 2.2 9.8 5.8 13l-0.6 1c9.5 5.6 15 12.3 15 18.4 0 6.2-5.5 13.1-15.2 18.8L553.8 972.1c-26.3 15.5-70.6 15.7-96.8 0.3L54.4 736.2c-9.5-5.6-15-12.3-15-18.4 0-6.2 5.5-13.1 15.2-18.8l-0.1-0.1c5.6-2.9 9.5-8.8 9.5-15.5 0-9.7-7.8-17.5-17.5-17.5-3.8 0-7.3 1.2-10.2 3.3C16 681.3 4.4 699 4.4 717.8c0 18.9 11.8 36.6 32.3 48.6l402.6 236.2c18.4 10.8 42 16.2 65.7 16.2 23.9 0 47.9-5.5 66.6-16.5l404.1-238.4c20.6-12.2 32.5-30 32.4-49 0-16.1-8.5-31.3-23.7-42.9z" p-id="9905"></path></svg>