<?xml version="1.0" standalone="no"?><!DOCTYPE svg PUBLIC "-//W3C//DTD SVG 1.1//EN" "http://www.w3.org/Graphics/SVG/1.1/DTD/svg11.dtd"><svg t="1511496511718" class="icon" style="" viewBox="0 0 1039 1024" version="1.1" xmlns="http://www.w3.org/2000/svg" p-id="2590" xmlns:xlink="http://www.w3.org/1999/xlink" width="202.9296875" height="200"><defs><style type="text/css"></style></defs><path d="M915.545445 1018.236584c-28.419602 0-58.031635-13.315478-81.184668-36.369141L665.035595 812.442892l-25.041048 25.041048-62.205143-62.205143 75.123144-75.123144-88.140514-88.140515-124.310917 124.310917c9.440078 32.990587 10.43377 64.093159 3.676661 104.43707l-0.198738 1.391169-0.397477 1.2918c-10.632508 31.798156-29.711402 76.116836-60.615235 107.02067-40.244541 40.244541-94.301407 61.509558-156.407181 61.509558-33.189326 0-60.714605-6.359631-89.233576-20.668801l-59.124697-29.612033L177.82822 862.028142v-25.537895h-25.537894L46.362718 942.517225l-29.810772-59.720913-0.198738-0.596215C-17.134225 801.711014 1.944668 706.018438 63.951073 644.012033c40.244541-40.244541 94.301407-61.509558 156.407181-61.509558 23.153033 0 41.138865 4.670354 57.932266 10.036293l124.211548-124.211548-175.883552-175.883552-25.041048 25.041048L20.228608 136.334595 138.875479 17.787094l181.150121 181.150121-25.041048 25.140417 175.883552 175.883552 124.410286-124.410286c-9.440078-32.990587-10.43377-64.093159-3.676662-104.43707l0.198738-1.391169 0.397477-1.2918c10.632508-31.798156 29.711402-76.116836 60.615236-107.02067C692.958351 21.265017 747.015217 0 809.12099 0c33.189326 0 60.714605 6.359631 89.233576 20.668802L957.479263 50.181465 851.551655 156.109073v25.537894h25.537894L976.756895 81.979622l30.10888 60.217758c33.487433 80.489083 14.40854 176.181659-47.597866 238.188064-40.244541 40.244541-94.301407 61.509558-156.407181 61.509558-23.153033 0-41.138865-4.670354-57.932265-10.036293l-124.211548 124.211548 88.140514 88.140514 75.123144-75.123144 62.205143 62.205143L821.144668 656.333819l169.325182 169.325181c13.812324 13.812324 21.662494 30.00951 28.518972 44.318681 3.676662 7.651431 7.154585 14.905386 11.228724 20.966909l2.881707 4.372246v5.26657c0 28.419602-13.315478 58.031635-36.369141 81.184668s-52.665696 36.46851-81.184667 36.46851zM665.035595 763.255119l193.968753 193.968753c16.694032 16.694032 37.263464 26.233479 56.640466 26.233479s39.946434-9.539447 56.640466-26.233479c15.302863-15.302863 24.643571-33.984279 26.03474-51.870742-3.97477-6.55837-7.253954-13.514216-10.533139-20.171956-6.260262-12.918001-12.123047-25.140417-21.761863-34.878602L771.956895 656.333819l25.041048-25.041049-13.01737-13.01737-75.123144 75.123144-137.328287-137.328287 163.959243-163.959243 10.235031 3.378554c17.985832 5.962154 34.878603 11.626201 57.137312 11.626201 52.665696 0 98.276177-17.687724 131.76361-51.274527 51.970112-52.069481 68.167297-132.161087 40.343911-199.732169L967.217448 140.607472l-75.719359 75.71936h-74.725667V141.601164l81.979621-81.979621-15.998447-7.949539c-23.45114-11.72557-46.206696-16.99214-73.632606-16.99214-52.665696 0-98.276177 17.687724-131.763609 51.274527-20.171955 20.171955-38.455895 52.765066-51.771374 92.115284-5.26657 31.996895-6.160893 60.813974 5.862785 96.785638l3.378555 10.235031-163.959243 163.959244L245.796779 224.077632l25.041048-25.041048L138.875479 66.974867l-69.359729 69.359728 131.962349 131.962348 25.041048-25.041048 225.071324 225.071325-163.959243 163.959243-10.235031-3.378554c-17.985832-5.962154-34.878603-11.626201-57.137312-11.626201-52.665696 0-98.276177 17.687724-131.76361 51.274527-51.970112 51.970112-68.167297 132.161087-40.343911 199.732169l7.750801 15.501601 81.979621-81.979622h74.725667v74.725667l-75.719359 75.71936 15.998447 8.048908c23.45114 11.72557 46.206696 16.99214 73.632606 16.99214 52.665696 0 98.276177-17.687724 131.76361-51.274527 20.171955-20.171955 38.455895-52.765066 51.771373-92.115284 5.26657-31.996895 6.160893-60.813974-5.862785-96.785638L400.812791 726.885978l163.959243-163.959243 137.328287 137.328287-75.123144 75.123144 13.01737 13.01737 25.041048-25.140417z" p-id="2591" fill="#000000"></path></svg>