<?xml version="1.0" standalone="no"?><!DOCTYPE svg PUBLIC "-//W3C//DTD SVG 1.1//EN" "http://www.w3.org/Graphics/SVG/1.1/DTD/svg11.dtd"><svg t="1512264204634" class="icon" style="" viewBox="0 0 1025 1024" version="1.1" xmlns="http://www.w3.org/2000/svg" p-id="4641" xmlns:xlink="http://www.w3.org/1999/xlink" width="200.1953125" height="200"><defs><style type="text/css"></style></defs><path d="M511.097002 530.962963c-3.611993 0-7.223986-3.611993-7.223986-7.223986V278.123457c0-3.611993 3.611993-7.223986 7.223986-7.223986s7.223986 3.611993 7.223986 7.223986V523.738977c0 3.611993-3.611993 7.223986-7.223986 7.223986z" p-id="4642" fill="#000000"></path><path d="M655.57672 281.73545H373.84127V0h281.73545v281.73545z m-269.093475-14.447972h252.839506V14.447972h-252.839506v252.839506zM281.73545 1022.194004H0V740.458554h281.73545v281.73545zM14.447972 1007.746032h252.839506v-252.839506H14.447972v252.839506zM1025.805996 1022.194004H744.070547V740.458554h281.735449v281.73545zM758.518519 1007.746032h252.839506v-252.839506H758.518519v252.839506z" p-id="4643" fill="#000000"></path><path d="M892.162257 747.68254h-14.447971V532.768959H149.897707v214.913581h-12.641975V518.320988h754.906525z" p-id="4644" fill="#000000"></path></svg>