<?xml version="1.0" standalone="no"?><!DOCTYPE svg PUBLIC "-//W3C//DTD SVG 1.1//EN" "http://www.w3.org/Graphics/SVG/1.1/DTD/svg11.dtd"><svg t="1511517722890" class="icon" style="" viewBox="0 0 1024 1024" version="1.1" xmlns="http://www.w3.org/2000/svg" p-id="12825" xmlns:xlink="http://www.w3.org/1999/xlink" width="200" height="200"><defs><style type="text/css"></style></defs><path d="M810.666667 256H384C311.466667 256 256 311.466667 256 384v426.666667H213.333333c-46.933333 0-85.333333-38.4-85.333333-85.333334V213.333333c0-46.933333 38.4-85.333333 85.333333-85.333333h512c46.933333 0 85.333333 38.4 85.333334 85.333333v42.666667zM298.666667 384c0-46.933333 38.4-85.333333 85.333333-85.333333h426.666667c46.933333 0 85.333333 38.4 85.333333 85.333333v426.666667c0 46.933333-38.4 85.333333-85.333333 85.333333H384c-46.933333 0-85.333333-38.4-85.333333-85.333333V384z m42.666666 0v426.666667c0 25.6 17.066667 42.666667 42.666667 42.666666h426.666667c25.6 0 42.666667-17.066667 42.666666-42.666666V384c0-25.6-17.066667-42.666667-42.666666-42.666667H384c-25.6 0-42.666667 17.066667-42.666667 42.666667z m307.2 217.6l85.333334 85.333333-46.933334 46.933334-85.333333-85.333334-85.333333 85.333334-46.933334-46.933334 85.333334-85.333333-85.333334-85.333333 46.933334-46.933334 85.333333 85.333334 85.333333-85.333334 46.933334 46.933334-85.333334 85.333333z" p-id="12826" fill="#000000"></path></svg>