<?xml version="1.0" standalone="no"?><!DOCTYPE svg PUBLIC "-//W3C//DTD SVG 1.1//EN" "http://www.w3.org/Graphics/SVG/1.1/DTD/svg11.dtd"><svg t="1511399339883" class="icon" style="" viewBox="0 0 1024 1024" version="1.1" xmlns="http://www.w3.org/2000/svg" p-id="8320" xmlns:xlink="http://www.w3.org/1999/xlink" width="200" height="200"><defs><style type="text/css"></style></defs><path d="M683.52 570.88c-10.24-10.24-25.6-10.24-35.84 0L627.2 591.36l-48.64-48.64c38.4-46.08 61.44-106.24 61.44-171.52 0-148.48-120.32-268.8-268.8-268.8S102.4 222.72 102.4 371.2s120.32 268.8 268.8 268.8c65.28 0 124.16-23.04 171.52-61.44l48.64 48.64-20.48 20.48c-10.24 10.24-10.24 25.6 0 35.84l230.4 230.4C806.4 919.04 812.8 921.6 819.2 921.6c6.4 0 12.8-2.56 17.92-7.68l76.8-76.8c10.24-10.24 10.24-25.6 0-35.84L683.52 570.88zM153.6 371.2c0-120.32 97.28-217.6 217.6-217.6s217.6 97.28 217.6 217.6-97.28 217.6-217.6 217.6S153.6 491.52 153.6 371.2zM819.2 860.16 624.64 665.6l40.96-40.96L860.16 819.2 819.2 860.16z" p-id="8321" fill="#000000"></path><path d="M486.4 345.6 256 345.6c-14.08 0-25.6 11.52-25.6 25.6s11.52 25.6 25.6 25.6l230.4 0c14.08 0 25.6-11.52 25.6-25.6S500.48 345.6 486.4 345.6z" p-id="8322" fill="#000000"></path></svg>